<svg xmlns="http://www.w3.org/2000/svg" version="1.1" xmlns:xlink="http://www.w3.org/1999/xlink" xmlns:svgjs="http://svgjs.dev/svgjs" width="1500" height="602" viewBox="0 0 1500 602"><g transform="matrix(1,0,0,1,-0.9090909090909918,-1.7476653782241556)"><svg viewBox="0 0 396 159" data-background-color="#ffffff" preserveAspectRatio="xMidYMid meet" height="602" width="1500" xmlns="http://www.w3.org/2000/svg" xmlns:xlink="http://www.w3.org/1999/xlink"><g id="tight-bounds" transform="matrix(1,0,0,1,0.2400000000000091,0.46159268295289735)"><svg viewBox="0 0 395.52 158.0768146340942" height="158.0768146340942" width="395.52"><g><svg viewBox="0 0 395.52 158.0768146340942" height="158.0768146340942" width="395.52"><g transform="matrix(1,0,0,1,0,116.188169100953)"><svg viewBox="0 0 395.52 41.8886455331412" height="41.8886455331412" width="395.52"><g id="textblocktransform"><svg viewBox="0 0 395.52 41.8886455331412" height="41.8886455331412" width="395.52" id="textblock"><g><svg viewBox="0 0 395.52 41.8886455331412" height="41.8886455331412" width="395.52"><g transform="matrix(1,0,0,1,0,0)"><svg width="395.52" viewBox="2.05 -36 346.97999999999996 36.75" height="41.8886455331412" data-palette-color="#b81d33"><path d="M31.2-34.2L31.2-9.45Q31.2-7.15 30.55-5.28 29.9-3.4 28.28-2.08 26.65-0.75 23.8 0 20.95 0.75 16.55 0.75L16.55 0.75Q12.2 0.75 9.38 0 6.55-0.75 4.93-2.08 3.3-3.4 2.68-5.28 2.05-7.15 2.05-9.45L2.05-9.45 2.05-17.55Q2.05-18.5 2.48-18.93 2.9-19.35 3.85-19.35L3.85-19.35 11.1-19.35Q12.05-19.35 12.48-18.93 12.9-18.5 12.9-17.55L12.9-17.55 12.9-11.45Q12.9-10.45 13.53-9.78 14.15-9.1 16.45-9.1L16.45-9.1Q18.6-9.1 19.18-9.78 19.75-10.45 19.75-11.45L19.75-11.45 19.75-34.2Q19.75-35.15 20.18-35.58 20.6-36 21.55-36L21.55-36 29.4-36Q30.35-36 30.78-35.58 31.2-35.15 31.2-34.2L31.2-34.2ZM62.85 0L62.85 0 39.65 0Q38.7 0 38.27-0.43 37.85-0.85 37.85-1.8L37.85-1.8 37.85-34.2Q37.85-35.15 38.27-35.58 38.7-36 39.65-36L39.65-36 62.85-36Q63.8-36 64.22-35.58 64.65-35.15 64.65-34.2L64.65-34.2 64.65-28.35Q64.65-27.4 64.22-26.98 63.8-26.55 62.85-26.55L62.85-26.55 49.05-26.55 49.05-22.7 58.8-22.7Q59.75-22.7 60.17-22.28 60.6-21.85 60.6-20.9L60.6-20.9 60.6-15.55Q60.6-14.6 60.17-14.18 59.75-13.75 58.8-13.75L58.8-13.75 49.05-13.75 49.05-9.45 62.85-9.45Q63.8-9.45 64.22-9.03 64.65-8.6 64.65-7.65L64.65-7.65 64.65-1.8Q64.65-0.85 64.22-0.43 63.8 0 62.85 0ZM97.8 0L97.8 0 72.34 0Q71.39 0 70.97-0.43 70.55-0.85 70.55-1.8L70.55-1.8 70.55-34.2Q70.55-35.15 70.97-35.58 71.39-36 72.34-36L72.34-36 80.09-36Q81.05-36 81.47-35.58 81.89-35.15 81.89-34.2L81.89-34.2 81.89-9.45 88.75-9.45 88.75-17.55Q88.75-18.5 89.17-18.93 89.59-19.35 90.55-19.35L90.55-19.35 97.8-19.35Q98.75-19.35 99.17-18.93 99.59-18.5 99.59-17.55L99.59-17.55 99.59-1.8Q99.59-0.85 99.17-0.43 98.75 0 97.8 0ZM132.54 0L132.54 0 107.09 0Q106.14 0 105.72-0.43 105.29-0.85 105.29-1.8L105.29-1.8 105.29-34.2Q105.29-35.15 105.72-35.58 106.14-36 107.09-36L107.09-36 114.84-36Q115.79-36 116.22-35.58 116.64-35.15 116.64-34.2L116.64-34.2 116.64-9.45 123.49-9.45 123.49-17.55Q123.49-18.5 123.92-18.93 124.34-19.35 125.29-19.35L125.29-19.35 132.54-19.35Q133.49-19.35 133.92-18.93 134.34-18.5 134.34-17.55L134.34-17.55 134.34-1.8Q134.34-0.85 133.92-0.43 133.49 0 132.54 0ZM155.79 0L155.79 0 147.69 0Q146.74 0 146.31-0.43 145.89-0.85 145.89-1.8L145.89-1.8 145.89-8.2 138.24-18.45Q137.09-20 136.72-21.15 136.34-22.3 136.34-24.6L136.34-24.6 136.34-34.2Q136.34-35.15 136.77-35.58 137.19-36 138.14-36L138.14-36 145.84-36Q146.79-36 147.22-35.58 147.64-35.15 147.64-34.2L147.64-34.2 147.64-26Q147.64-25.5 147.69-24.95 147.74-24.4 148.09-23.9L148.09-23.9 150.39-20.3Q150.64-19.85 150.91-19.65 151.19-19.45 151.59-19.45L151.59-19.45 152.09-19.45Q152.49-19.45 152.77-19.65 153.04-19.85 153.29-20.3L153.29-20.3 155.59-23.9Q155.94-24.4 155.99-24.95 156.04-25.5 156.04-26L156.04-26 156.04-34.2Q156.04-35.15 156.47-35.58 156.89-36 157.84-36L157.84-36 165.29-36Q166.24-36 166.67-35.58 167.09-35.15 167.09-34.2L167.09-34.2 167.09-24.6Q167.09-22.3 166.69-21.15 166.29-20 165.19-18.45L165.19-18.45 157.59-8.15 157.59-1.8Q157.59-0.85 157.17-0.43 156.74 0 155.79 0ZM204.54 0L204.54 0 185.34 0Q184.39 0 183.96-0.43 183.53-0.85 183.53-1.8L183.53-1.8 183.53-34.2Q183.53-35.15 183.96-35.58 184.39-36 185.34-36L185.34-36 201.29-36Q206.19-36 208.54-34.13 210.89-32.25 210.89-28.35L210.89-28.35 210.89-25.95Q210.89-23.85 210.16-22.53 209.44-21.2 207.94-20.55L207.94-20.55Q211.14-20.25 212.69-18.35 214.24-16.45 214.24-12.8L214.24-12.8 214.24-8.2Q214.24-4 211.86-2 209.49 0 204.54 0ZM199.03-27.5L194.78-27.5 194.78-22.1 199.03-22.1Q199.99-22.1 200.46-22.6 200.94-23.1 200.94-24.1L200.94-24.1 200.94-25.5Q200.94-26.5 200.46-27 199.99-27.5 199.03-27.5L199.03-27.5ZM201.29-14.4L194.78-14.4 194.78-8.5 201.29-8.5Q202.24-8.5 202.71-9 203.19-9.5 203.19-10.5L203.19-10.5 203.19-12.45Q203.19-13.45 202.71-13.93 202.24-14.4 201.29-14.4L201.29-14.4ZM244.78 0L244.78 0 221.58 0Q220.63 0 220.21-0.43 219.78-0.85 219.78-1.8L219.78-1.8 219.78-34.2Q219.78-35.15 220.21-35.58 220.63-36 221.58-36L221.58-36 244.78-36Q245.73-36 246.16-35.58 246.58-35.15 246.58-34.2L246.58-34.2 246.58-28.35Q246.58-27.4 246.16-26.98 245.73-26.55 244.78-26.55L244.78-26.55 230.98-26.55 230.98-22.7 240.73-22.7Q241.68-22.7 242.11-22.28 242.53-21.85 242.53-20.9L242.53-20.9 242.53-15.55Q242.53-14.6 242.11-14.18 241.68-13.75 240.73-13.75L240.73-13.75 230.98-13.75 230.98-9.45 244.78-9.45Q245.73-9.45 246.16-9.03 246.58-8.6 246.58-7.65L246.58-7.65 246.58-1.8Q246.58-0.85 246.16-0.43 245.73 0 244.78 0ZM279.73 0L279.73 0 254.28 0Q253.33 0 252.91-0.43 252.48-0.85 252.48-1.8L252.48-1.8 252.48-34.2Q252.48-35.15 252.91-35.58 253.33-36 254.28-36L254.28-36 262.03-36Q262.98-36 263.41-35.58 263.83-35.15 263.83-34.2L263.83-34.2 263.83-9.45 270.68-9.45 270.68-17.55Q270.68-18.5 271.11-18.93 271.53-19.35 272.48-19.35L272.48-19.35 279.73-19.35Q280.68-19.35 281.11-18.93 281.53-18.5 281.53-17.55L281.53-17.55 281.53-1.8Q281.53-0.85 281.11-0.43 280.68 0 279.73 0ZM314.48 0L314.48 0 289.03 0Q288.08 0 287.65-0.43 287.23-0.85 287.23-1.8L287.23-1.8 287.23-34.2Q287.23-35.15 287.65-35.58 288.08-36 289.03-36L289.03-36 296.78-36Q297.73-36 298.15-35.58 298.58-35.15 298.58-34.2L298.58-34.2 298.58-9.45 305.43-9.45 305.43-17.55Q305.43-18.5 305.85-18.93 306.28-19.35 307.23-19.35L307.23-19.35 314.48-19.35Q315.43-19.35 315.85-18.93 316.28-18.5 316.28-17.55L316.28-17.55 316.28-1.8Q316.28-0.85 315.85-0.43 315.43 0 314.48 0ZM337.73 0L337.73 0 329.63 0Q328.68 0 328.25-0.43 327.83-0.85 327.83-1.8L327.83-1.8 327.83-8.2 320.18-18.45Q319.03-20 318.65-21.15 318.28-22.3 318.28-24.6L318.28-24.6 318.28-34.2Q318.28-35.15 318.7-35.58 319.13-36 320.08-36L320.08-36 327.78-36Q328.73-36 329.15-35.58 329.58-35.15 329.58-34.2L329.58-34.2 329.58-26Q329.58-25.5 329.63-24.95 329.68-24.4 330.03-23.9L330.03-23.9 332.33-20.3Q332.58-19.85 332.85-19.65 333.13-19.45 333.53-19.45L333.53-19.45 334.03-19.45Q334.43-19.45 334.7-19.65 334.98-19.85 335.23-20.3L335.23-20.3 337.53-23.9Q337.88-24.4 337.93-24.95 337.98-25.5 337.98-26L337.98-26 337.98-34.2Q337.98-35.15 338.4-35.58 338.83-36 339.78-36L339.78-36 347.23-36Q348.18-36 348.6-35.58 349.03-35.15 349.03-34.2L349.03-34.2 349.03-24.6Q349.03-22.3 348.63-21.15 348.23-20 347.13-18.45L347.13-18.45 339.53-8.15 339.53-1.8Q339.53-0.85 339.1-0.43 338.68 0 337.73 0Z" opacity="1" transform="matrix(1,0,0,1,0,0)" fill="#b81d33" class="wordmark-text-0" data-fill-palette-color="primary" id="text-0"></path></svg></g></svg></g></svg></g></svg></g><g transform="matrix(1,0,0,1,149.55481933240532,0)"><svg viewBox="0 0 96.41036133518932 96.41036133518932" height="96.41036133518932" width="96.41036133518932"><g><svg></svg></g><g id="icon-0"><svg viewBox="0 0 96.41036133518932 96.41036133518932" height="96.41036133518932" width="96.41036133518932"><g><path d="M0 48.205c0-26.623 21.582-48.205 48.205-48.205 26.623 0 48.205 21.582 48.205 48.205 0 26.623-21.582 48.205-48.205 48.205-26.623 0-48.205-21.582-48.205-48.205zM48.205 92.633c24.537 0 44.428-19.891 44.428-44.428 0-24.537-19.891-44.428-44.428-44.427-24.537 0-44.428 19.891-44.427 44.427 0 24.537 19.891 44.428 44.427 44.428z" data-fill-palette-color="accent" fill="#fe6e63" stroke="transparent"></path><ellipse rx="47.72312886091871" ry="47.72312886091871" cx="48.20518066759466" cy="48.20518066759466" fill="#fe6e63" stroke="transparent" stroke-width="0" fill-opacity="1" data-fill-palette-color="accent"></ellipse></g><g transform="matrix(1,0,0,1,25.484138022843005,25.43206333848984)"><svg viewBox="0 0 45.44208528950331 45.54623465820964" height="45.54623465820964" width="45.44208528950331"><g><svg xmlns="http://www.w3.org/2000/svg" xmlns:xlink="http://www.w3.org/1999/xlink" version="1.1" x="0" y="0" viewBox="1.106348134397765 0.8191141798210537 97.40065186560224 97.62388582017894" enable-background="new 0 0 100 100" xml:space="preserve" height="45.54623465820964" width="45.44208528950331" class="icon-dxe-0" data-fill-palette-color="quaternary" id="dxe-0"><path fill="#ffffff" d="M98.334 28.896C98.694 21.589 96.098 14.161 90.499 8.594 80.012-1.818 63.066-1.768 52.652 8.718A26.63 26.63 0 0 0 45.015 24.925C43.946 29.664 41.605 34.168 37.933 37.867 34.258 41.565 29.768 43.936 25.042 45.037A26.66 26.66 0 0 0 8.88 52.78C-1.534 63.267-1.478 80.212 9.008 90.625 14.62 96.201 22.08 98.745 29.401 98.327L29.355 98.443C44.457 97.846 62.78 90.896 76.978 76.604 91.177 62.311 98.012 43.936 98.507 28.829zM55.924 28.279C51.183 51.698 30.424 56.126 25.398 56.84 25.228 56.892 25.049 57 24.863 57H24.777C22.793 57 22.634 55.154 22.629 55.077 22.579 54.421 22.913 53.087 24.535 52.879 28.364 52.39 47.683 48.847 52.005 27.499A2.01 2.01 0 0 1 54.361 25.926 1.996 1.996 0 0 1 55.924 28.279" data-fill-palette-color="quaternary"></path></svg></g></svg></g></svg></g></svg></g><g></g></svg></g><defs></defs></svg><rect width="395.52" height="158.0768146340942" fill="none" stroke="none" visibility="hidden"></rect></g></svg></g></svg>